#N canvas 620 152 542 406 10;
#X obj 246 206 soundfiler;
#X msg 247 183 read \$1 soundL;
#X obj 28 8 table soundL 8192;
#X obj 271 308 tabread soundL;
#N canvas 624 363 174 316 math 1;
#X obj 32 14 inlet;
#X obj 56 214 outlet;
#X obj 88 11 inlet;
#X obj 56 49 *;
#X obj 55 118 expr $f1%2;
#X connect 0 0 3 0;
#X connect 2 0 3 1;
#X connect 3 0 4 0;
#X connect 4 0 1 0;
#X restore 326 331 pd math;
#X obj 271 247 t b f f, f 20;
#N canvas 752 280 450 323 countto 0;
#X floatatom 102 61 5 0 0 0 - - -, f 5;
#X obj 157 96 int;
#X obj 195 93 + 1;
#X obj 196 114 % 8192;
#X obj 181 18 inlet;
#X obj 167 183 outlet;
#X obj 152 54 bang;
#X obj 227 -2 inlet;
#X obj 229 21 t b f;
#X msg 211 52 0;
#X obj 104 187 outlet;
#X obj 120 131 sel 8191, f 6;
#X connect 0 0 2 0;
#X connect 1 0 0 0;
#X connect 1 0 2 0;
#X connect 1 0 11 0;
#X connect 2 0 3 0;
#X connect 3 0 1 1;
#X connect 4 0 6 0;
#X connect 6 0 1 0;
#X connect 7 0 8 0;
#X connect 8 0 6 0;
#X connect 8 1 9 0;
#X connect 9 0 1 0;
#X connect 11 0 10 0;
#X connect 11 1 5 0;
#X coords 0 -1 1 1 100 18 1 34 60;
#X restore 110 244 pd countto;
#X obj 271 115 openpanel;
#X obj 252 119 bng 15 250 50 0 empty empty empty 17 7 0 10 -262144
-1 -1;
#X obj 258 356 tabwrite StegonographedMessage;
#X obj 6 30 table StegonographedMessage 8192;
#X obj 92 245 bng 15 250 50 0 empty empty empty 17 7 0 10 -262144 -1
-1;
#X obj 215 245 del 0.1;
#N canvas 94 101 342 373 ascii2binary 0;
#X obj 26 194 shell;
#X obj 19 17 inlet;
#X obj 37 223 outlet;
#X obj 60 101 prepend add2;
#X obj 95 222 print err;
#X msg 100 80 set echo -n ";
#X obj 46 49 t b b s b;
#X msg 72 13 ovosomnesnosotrosvaros;
#X msg 47 122 add " | xxd -bp |awk '{print \$2 \$3 \$4 \$5 \$6}'| tee
coolbinary;
#X msg 14 154;
#X msg 10 255 echo -n " FOO " | xxd -bp |awk '{print \$2 \$3 \$4 \$5
\$6 \$7}'| tee coolbinary;
#X connect 0 0 2 0;
#X connect 0 1 4 0;
#X connect 1 0 6 0;
#X connect 3 0 9 0;
#X connect 5 0 9 0;
#X connect 6 0 9 0;
#X connect 6 1 8 0;
#X connect 6 2 3 0;
#X connect 6 3 5 0;
#X connect 7 0 6 0;
#X connect 8 0 9 0;
#X connect 9 0 0 0;
#X restore 23 154 pd ascii2binary;
#N canvas 845 462 373 277 binary2ascii 1;
#X obj 18 12 inlet;
#X obj 36 218 outlet;
#X obj 94 217 print err;
#X msg 71 8 ovosomnesnosotrosvaros;
#X msg 185 37 1e+37;
#X obj 245 44 prepend add2;
#X obj 231 -8 t b b l b;
#X msg 200 98 echo " 1e+37 " | perl -lpe '$_=pack"B*" \;;
#X msg 285 23 set echo ";
#X msg 233 66 add " | perl -lpe '$_=pack"B*" \, $_' | tee coolascii
;
#X msg 9 141 less coolbinary| perl -lpe '$_=pack"B*" \, $_'^C \;;
#X obj 21 187 shell;
#X msg 12 59 echo -n " ovosomnesnosotrosvarosgratiaplenanostrodomuslostotosouterncalifornius
" | xxd -bp |awk '{print \$2 \$3 \$4 \$5 \$6 \$7}'|tr 'n' ' \; '| tee
coolbinary;
#X connect 5 0 7 0;
#X connect 6 0 7 0;
#X connect 6 1 9 0;
#X connect 6 2 5 0;
#X connect 6 3 8 0;
#X connect 8 0 7 0;
#X connect 9 0 7 0;
#X connect 10 0 11 0;
#X connect 11 0 1 0;
#X connect 11 1 2 0;
#X restore 14 204 pd binary2ascii;
#X obj 16 233 print done;
#X obj 85 186 print bin;
#X msg 20 97 helloworld;
#X msg 36 186 1.1e+06;
#X obj 349 219 shell;
#X msg 352 184 ./bitdepthofwave.sh \$1;
#X obj 276 138 t b s s;
#X connect 1 0 0 0;
#X connect 3 0 4 0;
#X connect 4 0 9 0;
#X connect 5 0 12 0;
#X connect 5 1 3 0;
#X connect 5 2 9 1;
#X connect 6 1 5 0;
#X connect 7 0 21 0;
#X connect 8 0 7 0;
#X connect 11 0 6 0;
#X connect 12 0 6 0;
#X connect 13 0 14 0;
#X connect 13 0 16 0;
#X connect 14 0 15 0;
#X connect 17 0 13 0;
#X connect 18 0 14 0;
#X connect 19 0 4 1;
#X connect 20 0 19 0;
#X connect 21 1 1 0;
#X connect 21 2 20 0;
