#N canvas 757 248 527 291 10;
#X obj 91 204 table soundL 8192;
#X obj 14 226 table LeastSignificantBit 8192;
#N canvas 95 127 342 373 ascii2binary 0;
#X obj 26 194 shell;
#X obj 19 17 inlet;
#X obj 37 223 outlet;
#X obj 60 101 prepend add2;
#X obj 95 222 print err;
#X msg 100 80 set echo -n ";
#X obj 46 49 t b b s b;
#X msg 72 13 ovosomnesnosotrosvaros;
#X msg 47 122 add " | xxd -bp |awk '{print \$2 \$3 \$4 \$5 \$6}'| tee
coolbinary;
#X msg 14 154;
#X msg 10 255 echo -n " FOO " | xxd -bp |awk '{print \$2 \$3 \$4 \$5
\$6 \$7}'| tee coolbinary;
#X connect 0 0 2 0;
#X connect 0 1 4 0;
#X connect 1 0 6 0;
#X connect 3 0 9 0;
#X connect 5 0 9 0;
#X connect 6 0 9 0;
#X connect 6 1 8 0;
#X connect 6 2 3 0;
#X connect 6 3 5 0;
#X connect 7 0 6 0;
#X connect 8 0 9 0;
#X connect 9 0 0 0;
#X restore 378 94 pd ascii2binary;
#N canvas 547 430 373 277 binary2ascii 0;
#X obj 65 13 inlet;
#X obj 36 218 outlet;
#X obj 94 217 print err;
#X obj 231 -8 t b b l b;
#X obj 129 170 shell;
#X msg 197 164 ls;
#X msg 81 93 ./zeroesandones2ascii.sh \$1;
#X msg 68 57 secretmessage;
#X connect 4 0 1 0;
#X connect 4 1 2 0;
#X connect 5 0 4 0;
#X connect 6 0 4 0;
#X connect 7 0 6 0;
#X restore 374 133 pd binary2ascii;
#X obj 375 154 print done;
#X msg 380 69 helloworld;
#X obj 222 204 table noLSB 8192;
#X obj 28 42 bng 15 250 50 0 empty empty empty 17 7 0 10 -262144 -1
-1;
#X obj 335 204 table soundwithmessage 8192;
#X obj 222 228 table binarymessage 8192;
#X obj 34 69 bng 15 250 50 0 empty empty empty 17 7 0 10 -262144 -1
-1;
#N canvas 540 375 207 302 load____a____sound 0;
#X obj 53 98 soundfiler;
#X msg 54 75 read \$1 soundL;
#X obj 50 -2 openpanel;
#N canvas 472 419 359 308 ExtractTheMessage 0;
#X obj 142 129 tabread soundL;
#X obj 116 101 t b f f, f 20;
#N canvas 752 280 450 323 countto 0;
#X floatatom 102 61 5 0 0 0 - - -, f 5;
#X obj 157 96 int;
#X obj 195 93 + 1;
#X obj 196 114 % 8192;
#X obj 181 18 inlet;
#X obj 167 183 outlet;
#X obj 152 54 bang;
#X obj 227 -2 inlet;
#X obj 229 21 t b f;
#X msg 211 52 0;
#X obj 104 187 outlet;
#X obj 120 131 sel 8191, f 6;
#X connect 0 0 2 0;
#X connect 1 0 0 0;
#X connect 1 0 2 0;
#X connect 1 0 11 0;
#X connect 2 0 3 0;
#X connect 3 0 1 1;
#X connect 4 0 6 0;
#X connect 6 0 1 0;
#X connect 7 0 8 0;
#X connect 8 0 6 0;
#X connect 8 1 9 0;
#X connect 9 0 1 0;
#X connect 11 0 10 0;
#X connect 11 1 5 0;
#X coords 0 -1 1 1 100 18 1 34 60;
#X restore 33 56 pd countto;
#X obj 47 227 tabwrite LeastSignificantBit;
#X obj 40 30 bng 15 250 50 0 empty empty empty 17 7 0 10 -262144 -1
-1;
#X obj 172 65 shell;
#X msg 175 30 ./bitdepthofwave.sh \$1;
#X floatatom 243 89 6 0 0 2 BitDepth - -, f 6;
#N canvas 288 237 211 357 math-y-watheee 0;
#X obj 37 6 inlet;
#X obj 40 278 outlet;
#X obj 83 7 inlet;
#X obj 33 149 % 2, f 5;
#X obj 99 77 pow;
#X msg 81 53 2;
#X obj 83 29 t b f;
#X obj 54 98 *;
#X obj 115 53 - 1;
#X obj 27 176 abs;
#X obj 111 273 outlet;
#X obj 62 197 expr $f2-$f1;
#X obj 41 122 t f f;
#X obj 132 239 print NOLSB;
#X obj 95 230 /;
#X connect 0 0 7 0;
#X connect 2 0 6 0;
#X connect 3 0 9 0;
#X connect 4 0 7 1;
#X connect 4 0 14 1;
#X connect 5 0 4 0;
#X connect 6 0 5 0;
#X connect 6 1 8 0;
#X connect 7 0 12 0;
#X connect 8 0 4 1;
#X connect 9 0 1 0;
#X connect 9 0 11 0;
#X connect 11 0 14 0;
#X connect 12 0 3 0;
#X connect 12 1 11 1;
#X connect 14 0 10 0;
#X restore 142 160 pd math-y-watheee;
#X obj 28 5 inlet;
#X obj 174 4 inlet;
#X obj 33 177 outlet DONE;
#X obj 222 209 tabwrite noLSB;
#X obj 57 100 del 0.2;
#X obj 266 119 value BitDepth, f 9;
#X connect 0 0 8 0;
#X connect 1 0 13 0;
#X connect 1 1 0 0;
#X connect 1 2 3 1;
#X connect 1 2 12 1;
#X connect 2 0 11 0;
#X connect 2 1 1 0;
#X connect 4 0 2 0;
#X connect 5 0 7 0;
#X connect 6 0 5 0;
#X connect 7 0 8 1;
#X connect 7 0 14 0;
#X connect 8 0 3 0;
#X connect 8 1 12 0;
#X connect 9 0 2 0;
#X connect 10 0 6 0;
#X connect 13 0 2 0;
#X restore 33 125 pd ExtractTheMessage;
#X obj 55 21 t b b a s;
#N canvas 758 383 450 323 writeoutthemessage 0;
#X obj 39 15 inlet;
#X obj 257 219 textfile;
#X msg 260 176 add2 \$1;
#N canvas 752 280 450 323 countto 0;
#X floatatom 102 61 5 0 0 0 - - -, f 5;
#X obj 157 96 int;
#X obj 195 93 + 1;
#X obj 196 114 % 8192;
#X obj 181 18 inlet;
#X obj 167 183 outlet;
#X obj 152 54 bang;
#X obj 227 -2 inlet;
#X obj 229 21 t b f;
#X msg 211 52 0;
#X obj 104 187 outlet;
#X obj 120 131 sel 8191, f 6;
#X connect 0 0 2 0;
#X connect 1 0 0 0;
#X connect 1 0 2 0;
#X connect 1 0 11 0;
#X connect 2 0 3 0;
#X connect 3 0 1 1;
#X connect 4 0 6 0;
#X connect 6 0 1 0;
#X connect 7 0 8 0;
#X connect 8 0 6 0;
#X connect 8 1 9 0;
#X connect 9 0 1 0;
#X connect 11 0 10 0;
#X connect 11 1 5 0;
#X coords 0 -1 1 1 100 18 1 34 60;
#X restore 103 72 pd countto;
#X obj 193 103 t b f;
#X obj 224 74 del 0.05;
#X obj 109 41 bang;
#X msg 124 176 write secretmessage;
#X msg 325 159 print;
#X obj 151 48 bng 15 250 50 0 empty empty empty 17 7 0 10 -262144 -1
-1;
#X obj 219 134 tabread LeastSignificantBit;
#X obj 62 296 shell;
#X msg 90 243 cat secretmessage|sed 's/ //g' > secretmessage.txt;
#X obj 105 129 t b b b;
#X msg 56 270 rm secretmessage;
#X connect 0 0 6 0;
#X connect 2 0 1 0;
#X connect 3 0 13 0;
#X connect 3 1 4 0;
#X connect 4 0 5 0;
#X connect 4 1 10 0;
#X connect 5 0 3 0;
#X connect 6 0 3 0;
#X connect 7 0 1 0;
#X connect 8 0 1 0;
#X connect 9 0 6 0;
#X connect 10 0 2 0;
#X connect 12 0 11 0;
#X connect 13 0 14 0;
#X connect 13 1 12 0;
#X connect 13 2 7 0;
#X connect 14 0 11 0;
#X restore 35 151 pd writeoutthemessage;
#X obj 95 203 outlet;
#X obj 3 2 inlet;
#X obj 6 199 outlet;
#X connect 1 0 0 0;
#X connect 2 0 4 0;
#X connect 3 0 5 0;
#X connect 4 1 3 0;
#X connect 4 2 1 0;
#X connect 4 3 3 1;
#X connect 4 3 6 0;
#X connect 7 0 2 0;
#X restore 52 17 pd load____a____sound;
#X obj 30 18 bng 15 250 50 0 empty empty empty 17 7 0 10 -262144 -1
-1;
#N canvas 625 448 228 274 load_a_message 0;
#X obj 17 9 inlet;
#X obj 12 80 shell;
#X obj 17 199 tabwrite binarymessage;
#X obj 9 109 unpack f f;
#X msg 17 42 python3 binaryfeeder.py \;;
#X obj 16 139 sel 0 1;
#X msg 12 163 0;
#X msg 42 162 1;
#X connect 0 0 4 0;
#X connect 1 0 3 0;
#X connect 3 0 5 0;
#X connect 3 1 2 1;
#X connect 4 0 1 0;
#X connect 5 0 6 0;
#X connect 5 1 7 0;
#X connect 6 0 2 0;
#X connect 7 0 2 0;
#X restore 55 44 pd load_a_message;
#N canvas 632 453 359 280 Insert__A__Message 0;
#N canvas 752 280 450 323 countto 0;
#X floatatom 102 61 5 0 0 0 - - -, f 5;
#X obj 157 96 int;
#X obj 195 93 + 1;
#X obj 196 114 % 8192;
#X obj 181 18 inlet;
#X obj 167 183 outlet;
#X obj 152 54 bang;
#X obj 227 -2 inlet;
#X obj 229 21 t b f;
#X msg 211 52 0;
#X obj 104 187 outlet;
#X obj 120 131 sel 8191, f 6;
#X connect 0 0 2 0;
#X connect 1 0 0 0;
#X connect 1 0 2 0;
#X connect 1 0 11 0;
#X connect 2 0 3 0;
#X connect 3 0 1 1;
#X connect 4 0 6 0;
#X connect 6 0 1 0;
#X connect 7 0 8 0;
#X connect 8 0 6 0;
#X connect 8 1 9 0;
#X connect 9 0 1 0;
#X connect 11 0 10 0;
#X connect 11 1 5 0;
#X coords 0 -1 1 1 100 18 1 34 60;
#X restore 17 54 pd countto;
#X obj 40 30 bng 15 250 50 0 empty empty empty 17 7 0 10 -262144 -1
-1;
#X obj 172 65 shell;
#X msg 175 30 ./bitdepthofwave.sh \$1;
#X floatatom 243 89 6 0 0 2 BitDepth - -, f 6;
#N canvas 591 360 364 407 math-y-watheee 0;
#X obj 37 6 inlet;
#X obj 40 278 outlet;
#X obj 173 7 inlet;
#X obj 123 159 % 2, f 5;
#X obj 189 77 pow;
#X msg 171 53 2;
#X obj 173 29 t b f;
#X obj 144 108 *;
#X obj 205 53 - 1;
#X obj 117 186 abs;
#X obj 131 132 t f f;
#X obj 95 8 inlet;
#X obj 70 231 +;
#X connect 0 0 12 0;
#X connect 2 0 6 0;
#X connect 3 0 9 0;
#X connect 4 0 7 1;
#X connect 5 0 4 0;
#X connect 6 0 5 0;
#X connect 6 1 8 0;
#X connect 7 0 10 0;
#X connect 8 0 4 1;
#X connect 9 0 12 1;
#X connect 10 0 3 0;
#X connect 11 0 7 0;
#X connect 12 0 1 0;
#X restore 122 182 pd math-y-watheee;
#X obj 28 5 inlet;
#X obj 174 4 inlet;
#X obj 39 189 outlet DONE;
#X obj 57 100 del 0.2;
#X obj 116 101 t b f f f, f 20;
#X obj 177 150 tabread binarymessage;
#X obj 142 129 tabread noLSB;
#X obj 163 208 tabwrite soundwithmessage;
#N canvas 0 0 450 300 writoutthemessage 0;
#X obj 119 150 soundfiler;
#X msg 120 127 write \$1 soundwithmessage;
#X obj 108 99 savepanel;
#X obj 71 41 inlet;
#X connect 1 0 0 0;
#X connect 2 0 1 0;
#X connect 3 0 2 0;
#X restore 27 215 pd writoutthemessage;
#X connect 0 0 8 0;
#X connect 0 0 14 0;
#X connect 0 1 10 0;
#X connect 1 0 0 0;
#X connect 2 0 4 0;
#X connect 3 0 2 0;
#X connect 4 0 5 2;
#X connect 5 0 13 0;
#X connect 6 0 0 0;
#X connect 7 0 3 0;
#X connect 9 0 0 0;
#X connect 10 0 9 0;
#X connect 10 1 12 0;
#X connect 10 2 13 1;
#X connect 10 3 11 0;
#X connect 11 0 5 1;
#X connect 12 0 5 0;
#X restore 52 70 pd Insert__A__Message;
#X connect 3 0 4 0;
#X connect 5 0 2 0;
#X connect 7 0 13 0;
#X connect 10 0 14 0;
#X connect 11 1 14 1;
#X connect 12 0 11 0;
